# xmcd
#
# Track frame offsets:
#	150
#	21102
#	89313
#	123232
#	167373
#	225236
#
# Disc length: 3187 seconds
#
# Revision: 1
# Processed by: cddbd v1.5.1PL2 Copyright (c) Steve Scherf et al.
# Submitted via: audiograbber 1.83.01
#
DISCID=340c7106
DTITLE=Sigi Zimmerschied - Werksschau 1975 - 1982 CD 1
DYEAR=1975
DGENRE=Cabaret Bayern
TTITLE0=Der Autolackierer Maurer
TTITLE1=Die Himmelskonferenz
TTITLE2=Marsch durch die Illusionen
TTITLE3=Zwischenmenschen
TTITLE4=Und Samstagabend, Klassenkampf
TTITLE5=Christliche Tugenden
EXTD=
EXTT0=
EXTT1=
EXTT2=
EXTT3=
EXTT4=
EXTT5=
PLAYORDER=
